<svg xmlns="http://www.w3.org/2000/svg" width="480" height="720" viewBox="0 0 120 180" shape-rendering="crispEdges"><rect width="120" height="180" fill="#050708"/><rect x="38" y="13" width="44" height="9" fill="#cdb8ff"/><rect x="31" y="20" width="58" height="55" fill="#d7c8ff"/><rect x="27" y="30" width="66" height="56" fill="#9b7cff"/><rect x="35" y="29" width="50" height="48" fill="#f0eaff"/><rect x="43" y="37" width="34" height="29" fill="#05060a"/><rect x="50" y="43" width="7" height="14" fill="#f7f6ff"/><rect x="65" y="43" width="7" height="14" fill="#f7f6ff"/><rect x="24" y="74" width="72" height="45" fill="#c8b2ff"/><rect x="17" y="82" width="23" height="45" fill="#e1d6ff"/><rect x="82" y="82" width="23" height="45" fill="#e1d6ff"/><rect x="37" y="112" width="20" height="39" fill="#baa0ff"/><rect x="64" y="112" width="20" height="39" fill="#baa0ff"/><rect x="31" y="146" width="30" height="12" fill="#ebe7ff"/><rect x="60" y="146" width="31" height="12" fill="#ebe7ff"/><rect x="20" y="20" width="8" height="8" fill="#9b7cff"/><rect x="92" y="31" width="10" height="10" fill="#22d9ee"/><rect x="13" y="55" width="7" height="7" fill="#d8ff3e"/><rect x="103" y="71" width="8" height="8" fill="#9b7cff"/><rect x="24" y="132" width="7" height="7" fill="#22d9ee"/><rect x="91" y="136" width="7" height="7" fill="#d8ff3e"/><rect x="45" y="8" width="6" height="6" fill="#9b7cff"/><rect x="73" y="7" width="5" height="5" fill="#22d9ee"/></svg>