<svg xmlns="http://www.w3.org/2000/svg" width="1600" height="900" viewBox="0 0 1600 900" shape-rendering="crispEdges">
  <rect width="1600" height="900" fill="#07120d"/>
  <rect width="1600" height="620" fill="#0d2a1c" opacity=".48"/>
  <rect x="198" y="252" width="5" height="5" fill="#d8ff3e" opacity="0.25"/><rect x="395" y="335" width="2" height="2" fill="#22d9ee" opacity="0.37"/><rect x="592" y="418" width="2" height="2" fill="#22d9ee" opacity="0.49"/><rect x="789" y="501" width="2" height="2" fill="#d8ff3e" opacity="0.61"/><rect x="986" y="64" width="2" height="2" fill="#22d9ee" opacity="0.73"/><rect x="1183" y="147" width="3" height="3" fill="#22d9ee" opacity="0.25"/><rect x="1380" y="230" width="2" height="2" fill="#d8ff3e" opacity="0.37"/><rect x="1577" y="313" width="2" height="2" fill="#22d9ee" opacity="0.49"/><rect x="194" y="396" width="2" height="2" fill="#22d9ee" opacity="0.61"/><rect x="391" y="479" width="2" height="2" fill="#d8ff3e" opacity="0.73"/><rect x="588" y="42" width="3" height="3" fill="#22d9ee" opacity="0.25"/><rect x="785" y="125" width="5" height="5" fill="#22d9ee" opacity="0.37"/><rect x="982" y="208" width="2" height="2" fill="#d8ff3e" opacity="0.49"/><rect x="1179" y="291" width="2" height="2" fill="#22d9ee" opacity="0.61"/><rect x="1376" y="374" width="2" height="2" fill="#22d9ee" opacity="0.73"/><rect x="1573" y="457" width="3" height="3" fill="#d8ff3e" opacity="0.25"/><rect x="190" y="20" width="2" height="2" fill="#22d9ee" opacity="0.37"/><rect x="387" y="103" width="2" height="2" fill="#22d9ee" opacity="0.49"/><rect x="584" y="186" width="2" height="2" fill="#d8ff3e" opacity="0.61"/><rect x="781" y="269" width="2" height="2" fill="#22d9ee" opacity="0.73"/><rect x="978" y="352" width="3" height="3" fill="#22d9ee" opacity="0.25"/><rect x="1175" y="435" width="2" height="2" fill="#d8ff3e" opacity="0.37"/><rect x="1372" y="518" width="5" height="5" fill="#22d9ee" opacity="0.49"/><rect x="1569" y="81" width="2" height="2" fill="#22d9ee" opacity="0.61"/><rect x="186" y="164" width="2" height="2" fill="#d8ff3e" opacity="0.73"/><rect x="383" y="247" width="3" height="3" fill="#22d9ee" opacity="0.25"/><rect x="580" y="330" width="2" height="2" fill="#22d9ee" opacity="0.37"/><rect x="777" y="413" width="2" height="2" fill="#d8ff3e" opacity="0.49"/><rect x="974" y="496" width="2" height="2" fill="#22d9ee" opacity="0.61"/><rect x="1171" y="59" width="2" height="2" fill="#22d9ee" opacity="0.73"/><rect x="1368" y="142" width="3" height="3" fill="#d8ff3e" opacity="0.25"/><rect x="1565" y="225" width="2" height="2" fill="#22d9ee" opacity="0.37"/><rect x="182" y="308" width="2" height="2" fill="#22d9ee" opacity="0.49"/><rect x="379" y="391" width="5" height="5" fill="#d8ff3e" opacity="0.61"/><rect x="576" y="474" width="2" height="2" fill="#22d9ee" opacity="0.73"/><rect x="773" y="37" width="3" height="3" fill="#22d9ee" opacity="0.25"/><rect x="970" y="120" width="2" height="2" fill="#d8ff3e" opacity="0.37"/><rect x="1167" y="203" width="2" height="2" fill="#22d9ee" opacity="0.49"/><rect x="1364" y="286" width="2" height="2" fill="#22d9ee" opacity="0.61"/><rect x="1561" y="369" width="2" height="2" fill="#d8ff3e" opacity="0.73"/><rect x="178" y="452" width="3" height="3" fill="#22d9ee" opacity="0.25"/><rect x="375" y="535" width="2" height="2" fill="#22d9ee" opacity="0.37"/><rect x="572" y="98" width="2" height="2" fill="#d8ff3e" opacity="0.49"/><rect x="769" y="181" width="2" height="2" fill="#22d9ee" opacity="0.61"/><rect x="966" y="264" width="5" height="5" fill="#22d9ee" opacity="0.73"/><rect x="1163" y="347" width="3" height="3" fill="#d8ff3e" opacity="0.25"/><rect x="1360" y="430" width="2" height="2" fill="#22d9ee" opacity="0.37"/><rect x="1557" y="513" width="2" height="2" fill="#22d9ee" opacity="0.49"/><rect x="174" y="76" width="2" height="2" fill="#d8ff3e" opacity="0.61"/><rect x="371" y="159" width="2" height="2" fill="#22d9ee" opacity="0.73"/><rect x="568" y="242" width="3" height="3" fill="#22d9ee" opacity="0.25"/><rect x="765" y="325" width="2" height="2" fill="#d8ff3e" opacity="0.37"/><rect x="962" y="408" width="2" height="2" fill="#22d9ee" opacity="0.49"/><rect x="1159" y="491" width="2" height="2" fill="#22d9ee" opacity="0.61"/><rect x="1356" y="54" width="2" height="2" fill="#d8ff3e" opacity="0.73"/><rect x="1553" y="137" width="5" height="5" fill="#22d9ee" opacity="0.25"/><rect x="170" y="220" width="2" height="2" fill="#22d9ee" opacity="0.37"/><rect x="367" y="303" width="2" height="2" fill="#d8ff3e" opacity="0.49"/><rect x="564" y="386" width="2" height="2" fill="#22d9ee" opacity="0.61"/><rect x="761" y="469" width="2" height="2" fill="#22d9ee" opacity="0.73"/><rect x="958" y="32" width="3" height="3" fill="#d8ff3e" opacity="0.25"/><rect x="1155" y="115" width="2" height="2" fill="#22d9ee" opacity="0.37"/><rect x="1352" y="198" width="2" height="2" fill="#22d9ee" opacity="0.49"/><rect x="1549" y="281" width="2" height="2" fill="#d8ff3e" opacity="0.61"/><rect x="166" y="364" width="2" height="2" fill="#22d9ee" opacity="0.73"/><rect x="363" y="447" width="3" height="3" fill="#22d9ee" opacity="0.25"/><rect x="560" y="530" width="5" height="5" fill="#d8ff3e" opacity="0.37"/><rect x="757" y="93" width="2" height="2" fill="#22d9ee" opacity="0.49"/><rect x="954" y="176" width="2" height="2" fill="#22d9ee" opacity="0.61"/><rect x="1151" y="259" width="2" height="2" fill="#d8ff3e" opacity="0.73"/><rect x="1348" y="342" width="3" height="3" fill="#22d9ee" opacity="0.25"/><rect x="1545" y="425" width="2" height="2" fill="#22d9ee" opacity="0.37"/><rect x="162" y="508" width="2" height="2" fill="#d8ff3e" opacity="0.49"/><rect x="359" y="71" width="2" height="2" fill="#22d9ee" opacity="0.61"/><rect x="556" y="154" width="2" height="2" fill="#22d9ee" opacity="0.73"/><rect x="30" y="626" width="48" height="194" fill="#d8ff3e" opacity="0.34"/>
      <rect x="38" y="641" width="7" height="7" fill="#22d9ee" opacity=".55"/><rect x="56" y="672" width="7" height="7" fill="#22d9ee" opacity=".55"/><rect x="38" y="703" width="7" height="7" fill="#22d9ee" opacity=".55"/><rect x="56" y="734" width="7" height="7" fill="#22d9ee" opacity=".55"/><rect x="38" y="765" width="7" height="7" fill="#22d9ee" opacity=".55"/><rect x="113" y="573" width="60" height="247" fill="#163038" opacity="0.17"/>
      <rect x="121" y="588" width="7" height="7" fill="#d8ff3e" opacity=".55"/><rect x="139" y="619" width="7" height="7" fill="#d8ff3e" opacity=".55"/><rect x="121" y="650" width="7" height="7" fill="#d8ff3e" opacity=".55"/><rect x="139" y="681" width="7" height="7" fill="#d8ff3e" opacity=".55"/><rect x="121" y="712" width="7" height="7" fill="#d8ff3e" opacity=".55"/><rect x="139" y="743" width="7" height="7" fill="#d8ff3e" opacity=".55"/><rect x="196" y="520" width="72" height="300" fill="#163038" opacity="0.17"/>
      <rect x="204" y="535" width="7" height="7" fill="#22d9ee" opacity=".55"/><rect x="222" y="566" width="7" height="7" fill="#22d9ee" opacity=".55"/><rect x="204" y="597" width="7" height="7" fill="#22d9ee" opacity=".55"/><rect x="222" y="628" width="7" height="7" fill="#22d9ee" opacity=".55"/><rect x="204" y="659" width="7" height="7" fill="#22d9ee" opacity=".55"/><rect x="222" y="690" width="7" height="7" fill="#22d9ee" opacity=".55"/><rect x="204" y="721" width="7" height="7" fill="#22d9ee" opacity=".55"/><rect x="252" y="727" width="48" height="93" fill="#163038" opacity="0.17"/>
      <rect x="260" y="742" width="7" height="7" fill="#d8ff3e" opacity=".55"/><rect x="278" y="773" width="7" height="7" fill="#d8ff3e" opacity=".55"/><rect x="335" y="674" width="60" height="146" fill="#d8ff3e" opacity="0.34"/>
      <rect x="343" y="689" width="7" height="7" fill="#22d9ee" opacity=".55"/><rect x="361" y="720" width="7" height="7" fill="#22d9ee" opacity=".55"/><rect x="343" y="751" width="7" height="7" fill="#22d9ee" opacity=".55"/><rect x="418" y="621" width="72" height="199" fill="#22d9ee" opacity="0.17"/>
      <rect x="426" y="636" width="7" height="7" fill="#d8ff3e" opacity=".55"/><rect x="444" y="667" width="7" height="7" fill="#d8ff3e" opacity=".55"/><rect x="426" y="698" width="7" height="7" fill="#d8ff3e" opacity=".55"/><rect x="444" y="729" width="7" height="7" fill="#d8ff3e" opacity=".55"/><rect x="426" y="760" width="7" height="7" fill="#d8ff3e" opacity=".55"/><rect x="474" y="568" width="48" height="252" fill="#163038" opacity="0.17"/>
      <rect x="482" y="583" width="7" height="7" fill="#22d9ee" opacity=".55"/><rect x="500" y="614" width="7" height="7" fill="#22d9ee" opacity=".55"/><rect x="482" y="645" width="7" height="7" fill="#22d9ee" opacity=".55"/><rect x="500" y="676" width="7" height="7" fill="#22d9ee" opacity=".55"/><rect x="482" y="707" width="7" height="7" fill="#22d9ee" opacity=".55"/><rect x="500" y="738" width="7" height="7" fill="#22d9ee" opacity=".55"/><rect x="557" y="515" width="60" height="305" fill="#163038" opacity="0.17"/>
      <rect x="565" y="530" width="7" height="7" fill="#d8ff3e" opacity=".55"/><rect x="583" y="561" width="7" height="7" fill="#d8ff3e" opacity=".55"/><rect x="565" y="592" width="7" height="7" fill="#d8ff3e" opacity=".55"/><rect x="583" y="623" width="7" height="7" fill="#d8ff3e" opacity=".55"/><rect x="565" y="654" width="7" height="7" fill="#d8ff3e" opacity=".55"/><rect x="583" y="685" width="7" height="7" fill="#d8ff3e" opacity=".55"/><rect x="565" y="716" width="7" height="7" fill="#d8ff3e" opacity=".55"/><rect x="640" y="722" width="72" height="98" fill="#d8ff3e" opacity="0.34"/>
      <rect x="648" y="737" width="7" height="7" fill="#22d9ee" opacity=".55"/><rect x="666" y="768" width="7" height="7" fill="#22d9ee" opacity=".55"/><rect x="696" y="669" width="48" height="151" fill="#163038" opacity="0.17"/>
      <rect x="704" y="684" width="7" height="7" fill="#d8ff3e" opacity=".55"/><rect x="722" y="715" width="7" height="7" fill="#d8ff3e" opacity=".55"/><rect x="704" y="746" width="7" height="7" fill="#d8ff3e" opacity=".55"/><rect x="779" y="616" width="60" height="204" fill="#22d9ee" opacity="0.17"/>
      <rect x="787" y="631" width="7" height="7" fill="#22d9ee" opacity=".55"/><rect x="805" y="662" width="7" height="7" fill="#22d9ee" opacity=".55"/><rect x="787" y="693" width="7" height="7" fill="#22d9ee" opacity=".55"/><rect x="805" y="724" width="7" height="7" fill="#22d9ee" opacity=".55"/><rect x="787" y="755" width="7" height="7" fill="#22d9ee" opacity=".55"/><rect x="862" y="563" width="72" height="257" fill="#163038" opacity="0.17"/>
      <rect x="870" y="578" width="7" height="7" fill="#d8ff3e" opacity=".55"/><rect x="888" y="609" width="7" height="7" fill="#d8ff3e" opacity=".55"/><rect x="870" y="640" width="7" height="7" fill="#d8ff3e" opacity=".55"/><rect x="888" y="671" width="7" height="7" fill="#d8ff3e" opacity=".55"/><rect x="870" y="702" width="7" height="7" fill="#d8ff3e" opacity=".55"/><rect x="888" y="733" width="7" height="7" fill="#d8ff3e" opacity=".55"/><rect x="918" y="510" width="48" height="310" fill="#d8ff3e" opacity="0.34"/>
      <rect x="926" y="525" width="7" height="7" fill="#22d9ee" opacity=".55"/><rect x="944" y="556" width="7" height="7" fill="#22d9ee" opacity=".55"/><rect x="926" y="587" width="7" height="7" fill="#22d9ee" opacity=".55"/><rect x="944" y="618" width="7" height="7" fill="#22d9ee" opacity=".55"/><rect x="926" y="649" width="7" height="7" fill="#22d9ee" opacity=".55"/><rect x="944" y="680" width="7" height="7" fill="#22d9ee" opacity=".55"/><rect x="926" y="711" width="7" height="7" fill="#22d9ee" opacity=".55"/><rect x="1001" y="717" width="60" height="103" fill="#163038" opacity="0.17"/>
      <rect x="1009" y="732" width="7" height="7" fill="#d8ff3e" opacity=".55"/><rect x="1027" y="763" width="7" height="7" fill="#d8ff3e" opacity=".55"/><rect x="1084" y="664" width="72" height="156" fill="#163038" opacity="0.17"/>
      <rect x="1092" y="679" width="7" height="7" fill="#22d9ee" opacity=".55"/><rect x="1110" y="710" width="7" height="7" fill="#22d9ee" opacity=".55"/><rect x="1092" y="741" width="7" height="7" fill="#22d9ee" opacity=".55"/><rect x="1110" y="772" width="7" height="7" fill="#22d9ee" opacity=".55"/><rect x="1140" y="611" width="48" height="209" fill="#22d9ee" opacity="0.17"/>
      <rect x="1148" y="626" width="7" height="7" fill="#d8ff3e" opacity=".55"/><rect x="1166" y="657" width="7" height="7" fill="#d8ff3e" opacity=".55"/><rect x="1148" y="688" width="7" height="7" fill="#d8ff3e" opacity=".55"/><rect x="1166" y="719" width="7" height="7" fill="#d8ff3e" opacity=".55"/><rect x="1148" y="750" width="7" height="7" fill="#d8ff3e" opacity=".55"/><rect x="1223" y="558" width="60" height="262" fill="#d8ff3e" opacity="0.34"/>
      <rect x="1231" y="573" width="7" height="7" fill="#22d9ee" opacity=".55"/><rect x="1249" y="604" width="7" height="7" fill="#22d9ee" opacity=".55"/><rect x="1231" y="635" width="7" height="7" fill="#22d9ee" opacity=".55"/><rect x="1249" y="666" width="7" height="7" fill="#22d9ee" opacity=".55"/><rect x="1231" y="697" width="7" height="7" fill="#22d9ee" opacity=".55"/><rect x="1249" y="728" width="7" height="7" fill="#22d9ee" opacity=".55"/><rect x="1306" y="505" width="72" height="315" fill="#163038" opacity="0.17"/>
      <rect x="1314" y="520" width="7" height="7" fill="#d8ff3e" opacity=".55"/><rect x="1332" y="551" width="7" height="7" fill="#d8ff3e" opacity=".55"/><rect x="1314" y="582" width="7" height="7" fill="#d8ff3e" opacity=".55"/><rect x="1332" y="613" width="7" height="7" fill="#d8ff3e" opacity=".55"/><rect x="1314" y="644" width="7" height="7" fill="#d8ff3e" opacity=".55"/><rect x="1332" y="675" width="7" height="7" fill="#d8ff3e" opacity=".55"/><rect x="1314" y="706" width="7" height="7" fill="#d8ff3e" opacity=".55"/><rect x="1362" y="712" width="48" height="108" fill="#163038" opacity="0.17"/>
      <rect x="1370" y="727" width="7" height="7" fill="#22d9ee" opacity=".55"/><rect x="1388" y="758" width="7" height="7" fill="#22d9ee" opacity=".55"/><rect x="1445" y="659" width="60" height="161" fill="#163038" opacity="0.17"/>
      <rect x="1453" y="674" width="7" height="7" fill="#d8ff3e" opacity=".55"/><rect x="1471" y="705" width="7" height="7" fill="#d8ff3e" opacity=".55"/><rect x="1453" y="736" width="7" height="7" fill="#d8ff3e" opacity=".55"/><rect x="1471" y="767" width="7" height="7" fill="#d8ff3e" opacity=".55"/><rect x="1528" y="606" width="72" height="214" fill="#d8ff3e" opacity="0.34"/>
      <rect x="1536" y="621" width="7" height="7" fill="#22d9ee" opacity=".55"/><rect x="1554" y="652" width="7" height="7" fill="#22d9ee" opacity=".55"/><rect x="1536" y="683" width="7" height="7" fill="#22d9ee" opacity=".55"/><rect x="1554" y="714" width="7" height="7" fill="#22d9ee" opacity=".55"/><rect x="1536" y="745" width="7" height="7" fill="#22d9ee" opacity=".55"/><rect x="1584" y="553" width="48" height="267" fill="#163038" opacity="0.17"/>
      <rect x="1592" y="568" width="7" height="7" fill="#d8ff3e" opacity=".55"/><rect x="1610" y="599" width="7" height="7" fill="#d8ff3e" opacity=".55"/><rect x="1592" y="630" width="7" height="7" fill="#d8ff3e" opacity=".55"/><rect x="1610" y="661" width="7" height="7" fill="#d8ff3e" opacity=".55"/><rect x="1592" y="692" width="7" height="7" fill="#d8ff3e" opacity=".55"/><rect x="1610" y="723" width="7" height="7" fill="#d8ff3e" opacity=".55"/><rect x="1592" y="754" width="7" height="7" fill="#d8ff3e" opacity=".55"/><g opacity=".55"><rect x="120" y="412" width="70" height="44" rx="2" fill="#070a0b" stroke="#22d9ee" stroke-width="3"/>
      <rect x="131" y="423" width="48" height="5" fill="#d8ff3e"/><rect x="131" y="435" width="20" height="5" fill="#506165"/></g><g opacity=".55"><rect x="335" y="279" width="70" height="44" rx="2" fill="#070a0b" stroke="#d8ff3e" stroke-width="3"/>
      <rect x="346" y="290" width="48" height="5" fill="#22d9ee"/><rect x="346" y="302" width="27" height="5" fill="#506165"/></g><g opacity=".55"><rect x="490" y="376" width="70" height="44" rx="2" fill="#070a0b" stroke="#22d9ee" stroke-width="3"/>
      <rect x="501" y="387" width="48" height="5" fill="#d8ff3e"/><rect x="501" y="399" width="34" height="5" fill="#506165"/></g><g opacity=".55"><rect x="705" y="243" width="70" height="44" rx="2" fill="#070a0b" stroke="#d8ff3e" stroke-width="3"/>
      <rect x="716" y="254" width="48" height="5" fill="#22d9ee"/><rect x="716" y="266" width="41" height="5" fill="#506165"/></g><g opacity=".55"><rect x="860" y="340" width="70" height="44" rx="2" fill="#070a0b" stroke="#22d9ee" stroke-width="3"/>
      <rect x="871" y="351" width="48" height="5" fill="#d8ff3e"/><rect x="871" y="363" width="20" height="5" fill="#506165"/></g><g opacity=".55"><rect x="1075" y="437" width="70" height="44" rx="2" fill="#070a0b" stroke="#d8ff3e" stroke-width="3"/>
      <rect x="1086" y="448" width="48" height="5" fill="#22d9ee"/><rect x="1086" y="460" width="27" height="5" fill="#506165"/></g><g opacity=".55"><rect x="1230" y="304" width="70" height="44" rx="2" fill="#070a0b" stroke="#22d9ee" stroke-width="3"/>
      <rect x="1241" y="315" width="48" height="5" fill="#d8ff3e"/><rect x="1241" y="327" width="34" height="5" fill="#506165"/></g><g opacity=".55"><rect x="1445" y="401" width="70" height="44" rx="2" fill="#070a0b" stroke="#d8ff3e" stroke-width="3"/>
      <rect x="1456" y="412" width="48" height="5" fill="#22d9ee"/><rect x="1456" y="424" width="41" height="5" fill="#506165"/></g><g transform="translate(800 520)"><rect x="-14" y="-120" width="28" height="230" fill="#495b36"/><rect x="-110" y="-80" width="90" height="26" fill="#d8ff3e" opacity=".65"/><rect x="20" y="-40" width="120" height="24" fill="#22d9ee" opacity=".55"/><rect x="-145" y="10" width="120" height="20" fill="#d8ff3e" opacity=".45"/></g>
  <rect x="32" y="32" width="8" height="836" fill="#d8ff3e" opacity=".55"/>
  <rect x="48" y="32" width="2" height="836" fill="#22d9ee" opacity=".4"/>
  <g opacity=".78"><rect x="78" y="62" width="464" height="52" fill="#050708" stroke="#d8ff3e" stroke-width="2"/>
  <text x="96" y="94" font-family="monospace" font-size="24" font-weight="700" fill="#d8ff3e">JARDIM GLITCH</text></g>
  <text x="96" y="132" font-family="monospace" font-size="12" fill="#22d9ee" opacity=".8">NATUREZA.EXE RESPONDENDO</text>
  <text x="1290" y="850" font-family="monospace" font-size="11" fill="#d8ff3e" opacity=".55">AVESSO.SYS // WALLPAPER 05</text>
  <path d="M0 760 H1600" stroke="#d8ff3e" stroke-width="2" opacity=".18"/>
</svg>