<svg xmlns="http://www.w3.org/2000/svg" width="1600" height="900" viewBox="0 0 1600 900" shape-rendering="crispEdges">
  <rect width="1600" height="900" fill="#04121b"/>
  <rect width="1600" height="620" fill="#062c3b" opacity=".48"/>
  <rect x="245" y="311" width="5" height="5" fill="#22d9ee" opacity="0.25"/><rect x="442" y="394" width="2" height="2" fill="#9b7cff" opacity="0.37"/><rect x="639" y="477" width="2" height="2" fill="#9b7cff" opacity="0.49"/><rect x="836" y="40" width="2" height="2" fill="#22d9ee" opacity="0.61"/><rect x="1033" y="123" width="2" height="2" fill="#9b7cff" opacity="0.73"/><rect x="1230" y="206" width="3" height="3" fill="#9b7cff" opacity="0.25"/><rect x="1427" y="289" width="2" height="2" fill="#22d9ee" opacity="0.37"/><rect x="44" y="372" width="2" height="2" fill="#9b7cff" opacity="0.49"/><rect x="241" y="455" width="2" height="2" fill="#9b7cff" opacity="0.61"/><rect x="438" y="18" width="2" height="2" fill="#22d9ee" opacity="0.73"/><rect x="635" y="101" width="3" height="3" fill="#9b7cff" opacity="0.25"/><rect x="832" y="184" width="5" height="5" fill="#9b7cff" opacity="0.37"/><rect x="1029" y="267" width="2" height="2" fill="#22d9ee" opacity="0.49"/><rect x="1226" y="350" width="2" height="2" fill="#9b7cff" opacity="0.61"/><rect x="1423" y="433" width="2" height="2" fill="#9b7cff" opacity="0.73"/><rect x="40" y="516" width="3" height="3" fill="#22d9ee" opacity="0.25"/><rect x="237" y="79" width="2" height="2" fill="#9b7cff" opacity="0.37"/><rect x="434" y="162" width="2" height="2" fill="#9b7cff" opacity="0.49"/><rect x="631" y="245" width="2" height="2" fill="#22d9ee" opacity="0.61"/><rect x="828" y="328" width="2" height="2" fill="#9b7cff" opacity="0.73"/><rect x="1025" y="411" width="3" height="3" fill="#9b7cff" opacity="0.25"/><rect x="1222" y="494" width="2" height="2" fill="#22d9ee" opacity="0.37"/><rect x="1419" y="57" width="5" height="5" fill="#9b7cff" opacity="0.49"/><rect x="36" y="140" width="2" height="2" fill="#9b7cff" opacity="0.61"/><rect x="233" y="223" width="2" height="2" fill="#22d9ee" opacity="0.73"/><rect x="430" y="306" width="3" height="3" fill="#9b7cff" opacity="0.25"/><rect x="627" y="389" width="2" height="2" fill="#9b7cff" opacity="0.37"/><rect x="824" y="472" width="2" height="2" fill="#22d9ee" opacity="0.49"/><rect x="1021" y="35" width="2" height="2" fill="#9b7cff" opacity="0.61"/><rect x="1218" y="118" width="2" height="2" fill="#9b7cff" opacity="0.73"/><rect x="1415" y="201" width="3" height="3" fill="#22d9ee" opacity="0.25"/><rect x="32" y="284" width="2" height="2" fill="#9b7cff" opacity="0.37"/><rect x="229" y="367" width="2" height="2" fill="#9b7cff" opacity="0.49"/><rect x="426" y="450" width="5" height="5" fill="#22d9ee" opacity="0.61"/><rect x="623" y="533" width="2" height="2" fill="#9b7cff" opacity="0.73"/><rect x="820" y="96" width="3" height="3" fill="#9b7cff" opacity="0.25"/><rect x="1017" y="179" width="2" height="2" fill="#22d9ee" opacity="0.37"/><rect x="1214" y="262" width="2" height="2" fill="#9b7cff" opacity="0.49"/><rect x="1411" y="345" width="2" height="2" fill="#9b7cff" opacity="0.61"/><rect x="28" y="428" width="2" height="2" fill="#22d9ee" opacity="0.73"/><rect x="225" y="511" width="3" height="3" fill="#9b7cff" opacity="0.25"/><rect x="422" y="74" width="2" height="2" fill="#9b7cff" opacity="0.37"/><rect x="619" y="157" width="2" height="2" fill="#22d9ee" opacity="0.49"/><rect x="816" y="240" width="2" height="2" fill="#9b7cff" opacity="0.61"/><rect x="1013" y="323" width="5" height="5" fill="#9b7cff" opacity="0.73"/><rect x="1210" y="406" width="3" height="3" fill="#22d9ee" opacity="0.25"/><rect x="1407" y="489" width="2" height="2" fill="#9b7cff" opacity="0.37"/><rect x="24" y="52" width="2" height="2" fill="#9b7cff" opacity="0.49"/><rect x="221" y="135" width="2" height="2" fill="#22d9ee" opacity="0.61"/><rect x="418" y="218" width="2" height="2" fill="#9b7cff" opacity="0.73"/><rect x="615" y="301" width="3" height="3" fill="#9b7cff" opacity="0.25"/><rect x="812" y="384" width="2" height="2" fill="#22d9ee" opacity="0.37"/><rect x="1009" y="467" width="2" height="2" fill="#9b7cff" opacity="0.49"/><rect x="1206" y="30" width="2" height="2" fill="#9b7cff" opacity="0.61"/><rect x="1403" y="113" width="2" height="2" fill="#22d9ee" opacity="0.73"/><rect x="20" y="196" width="5" height="5" fill="#9b7cff" opacity="0.25"/><rect x="217" y="279" width="2" height="2" fill="#9b7cff" opacity="0.37"/><rect x="414" y="362" width="2" height="2" fill="#22d9ee" opacity="0.49"/><rect x="611" y="445" width="2" height="2" fill="#9b7cff" opacity="0.61"/><rect x="808" y="528" width="2" height="2" fill="#9b7cff" opacity="0.73"/><rect x="1005" y="91" width="3" height="3" fill="#22d9ee" opacity="0.25"/><rect x="1202" y="174" width="2" height="2" fill="#9b7cff" opacity="0.37"/><rect x="1399" y="257" width="2" height="2" fill="#9b7cff" opacity="0.49"/><rect x="16" y="340" width="2" height="2" fill="#22d9ee" opacity="0.61"/><rect x="213" y="423" width="2" height="2" fill="#9b7cff" opacity="0.73"/><rect x="410" y="506" width="3" height="3" fill="#9b7cff" opacity="0.25"/><rect x="607" y="69" width="5" height="5" fill="#22d9ee" opacity="0.37"/><rect x="804" y="152" width="2" height="2" fill="#9b7cff" opacity="0.49"/><rect x="1001" y="235" width="2" height="2" fill="#9b7cff" opacity="0.61"/><rect x="1198" y="318" width="2" height="2" fill="#22d9ee" opacity="0.73"/><rect x="1395" y="401" width="3" height="3" fill="#9b7cff" opacity="0.25"/><rect x="12" y="484" width="2" height="2" fill="#9b7cff" opacity="0.37"/><rect x="209" y="47" width="2" height="2" fill="#22d9ee" opacity="0.49"/><rect x="406" y="130" width="2" height="2" fill="#9b7cff" opacity="0.61"/><rect x="603" y="213" width="2" height="2" fill="#9b7cff" opacity="0.73"/><rect x="30" y="595" width="48" height="225" fill="#22d9ee" opacity="0.34"/>
      <rect x="38" y="610" width="7" height="7" fill="#9b7cff" opacity=".55"/><rect x="56" y="641" width="7" height="7" fill="#9b7cff" opacity=".55"/><rect x="38" y="672" width="7" height="7" fill="#9b7cff" opacity=".55"/><rect x="56" y="703" width="7" height="7" fill="#9b7cff" opacity=".55"/><rect x="38" y="734" width="7" height="7" fill="#9b7cff" opacity=".55"/><rect x="113" y="542" width="60" height="278" fill="#163038" opacity="0.17"/>
      <rect x="121" y="557" width="7" height="7" fill="#22d9ee" opacity=".55"/><rect x="139" y="588" width="7" height="7" fill="#22d9ee" opacity=".55"/><rect x="121" y="619" width="7" height="7" fill="#22d9ee" opacity=".55"/><rect x="139" y="650" width="7" height="7" fill="#22d9ee" opacity=".55"/><rect x="121" y="681" width="7" height="7" fill="#22d9ee" opacity=".55"/><rect x="139" y="712" width="7" height="7" fill="#22d9ee" opacity=".55"/><rect x="121" y="743" width="7" height="7" fill="#22d9ee" opacity=".55"/><rect x="196" y="749" width="72" height="71" fill="#163038" opacity="0.17"/>
      <rect x="204" y="764" width="7" height="7" fill="#9b7cff" opacity=".55"/><rect x="252" y="696" width="48" height="124" fill="#163038" opacity="0.17"/>
      <rect x="260" y="711" width="7" height="7" fill="#22d9ee" opacity=".55"/><rect x="278" y="742" width="7" height="7" fill="#22d9ee" opacity=".55"/><rect x="260" y="773" width="7" height="7" fill="#22d9ee" opacity=".55"/><rect x="335" y="643" width="60" height="177" fill="#22d9ee" opacity="0.34"/>
      <rect x="343" y="658" width="7" height="7" fill="#9b7cff" opacity=".55"/><rect x="361" y="689" width="7" height="7" fill="#9b7cff" opacity=".55"/><rect x="343" y="720" width="7" height="7" fill="#9b7cff" opacity=".55"/><rect x="361" y="751" width="7" height="7" fill="#9b7cff" opacity=".55"/><rect x="418" y="590" width="72" height="230" fill="#9b7cff" opacity="0.17"/>
      <rect x="426" y="605" width="7" height="7" fill="#22d9ee" opacity=".55"/><rect x="444" y="636" width="7" height="7" fill="#22d9ee" opacity=".55"/><rect x="426" y="667" width="7" height="7" fill="#22d9ee" opacity=".55"/><rect x="444" y="698" width="7" height="7" fill="#22d9ee" opacity=".55"/><rect x="426" y="729" width="7" height="7" fill="#22d9ee" opacity=".55"/><rect x="444" y="760" width="7" height="7" fill="#22d9ee" opacity=".55"/><rect x="474" y="537" width="48" height="283" fill="#163038" opacity="0.17"/>
      <rect x="482" y="552" width="7" height="7" fill="#9b7cff" opacity=".55"/><rect x="500" y="583" width="7" height="7" fill="#9b7cff" opacity=".55"/><rect x="482" y="614" width="7" height="7" fill="#9b7cff" opacity=".55"/><rect x="500" y="645" width="7" height="7" fill="#9b7cff" opacity=".55"/><rect x="482" y="676" width="7" height="7" fill="#9b7cff" opacity=".55"/><rect x="500" y="707" width="7" height="7" fill="#9b7cff" opacity=".55"/><rect x="482" y="738" width="7" height="7" fill="#9b7cff" opacity=".55"/><rect x="557" y="744" width="60" height="76" fill="#163038" opacity="0.17"/>
      <rect x="565" y="759" width="7" height="7" fill="#22d9ee" opacity=".55"/><rect x="583" y="790" width="7" height="7" fill="#22d9ee" opacity=".55"/><rect x="640" y="691" width="72" height="129" fill="#22d9ee" opacity="0.34"/>
      <rect x="648" y="706" width="7" height="7" fill="#9b7cff" opacity=".55"/><rect x="666" y="737" width="7" height="7" fill="#9b7cff" opacity=".55"/><rect x="648" y="768" width="7" height="7" fill="#9b7cff" opacity=".55"/><rect x="696" y="638" width="48" height="182" fill="#163038" opacity="0.17"/>
      <rect x="704" y="653" width="7" height="7" fill="#22d9ee" opacity=".55"/><rect x="722" y="684" width="7" height="7" fill="#22d9ee" opacity=".55"/><rect x="704" y="715" width="7" height="7" fill="#22d9ee" opacity=".55"/><rect x="722" y="746" width="7" height="7" fill="#22d9ee" opacity=".55"/><rect x="779" y="585" width="60" height="235" fill="#9b7cff" opacity="0.17"/>
      <rect x="787" y="600" width="7" height="7" fill="#9b7cff" opacity=".55"/><rect x="805" y="631" width="7" height="7" fill="#9b7cff" opacity=".55"/><rect x="787" y="662" width="7" height="7" fill="#9b7cff" opacity=".55"/><rect x="805" y="693" width="7" height="7" fill="#9b7cff" opacity=".55"/><rect x="787" y="724" width="7" height="7" fill="#9b7cff" opacity=".55"/><rect x="805" y="755" width="7" height="7" fill="#9b7cff" opacity=".55"/><rect x="862" y="532" width="72" height="288" fill="#163038" opacity="0.17"/>
      <rect x="870" y="547" width="7" height="7" fill="#22d9ee" opacity=".55"/><rect x="888" y="578" width="7" height="7" fill="#22d9ee" opacity=".55"/><rect x="870" y="609" width="7" height="7" fill="#22d9ee" opacity=".55"/><rect x="888" y="640" width="7" height="7" fill="#22d9ee" opacity=".55"/><rect x="870" y="671" width="7" height="7" fill="#22d9ee" opacity=".55"/><rect x="888" y="702" width="7" height="7" fill="#22d9ee" opacity=".55"/><rect x="870" y="733" width="7" height="7" fill="#22d9ee" opacity=".55"/><rect x="918" y="739" width="48" height="81" fill="#22d9ee" opacity="0.34"/>
      <rect x="926" y="754" width="7" height="7" fill="#9b7cff" opacity=".55"/><rect x="944" y="785" width="7" height="7" fill="#9b7cff" opacity=".55"/><rect x="1001" y="686" width="60" height="134" fill="#163038" opacity="0.17"/>
      <rect x="1009" y="701" width="7" height="7" fill="#22d9ee" opacity=".55"/><rect x="1027" y="732" width="7" height="7" fill="#22d9ee" opacity=".55"/><rect x="1009" y="763" width="7" height="7" fill="#22d9ee" opacity=".55"/><rect x="1084" y="633" width="72" height="187" fill="#163038" opacity="0.17"/>
      <rect x="1092" y="648" width="7" height="7" fill="#9b7cff" opacity=".55"/><rect x="1110" y="679" width="7" height="7" fill="#9b7cff" opacity=".55"/><rect x="1092" y="710" width="7" height="7" fill="#9b7cff" opacity=".55"/><rect x="1110" y="741" width="7" height="7" fill="#9b7cff" opacity=".55"/><rect x="1140" y="580" width="48" height="240" fill="#9b7cff" opacity="0.17"/>
      <rect x="1148" y="595" width="7" height="7" fill="#22d9ee" opacity=".55"/><rect x="1166" y="626" width="7" height="7" fill="#22d9ee" opacity=".55"/><rect x="1148" y="657" width="7" height="7" fill="#22d9ee" opacity=".55"/><rect x="1166" y="688" width="7" height="7" fill="#22d9ee" opacity=".55"/><rect x="1148" y="719" width="7" height="7" fill="#22d9ee" opacity=".55"/><rect x="1166" y="750" width="7" height="7" fill="#22d9ee" opacity=".55"/><rect x="1223" y="527" width="60" height="293" fill="#22d9ee" opacity="0.34"/>
      <rect x="1231" y="542" width="7" height="7" fill="#9b7cff" opacity=".55"/><rect x="1249" y="573" width="7" height="7" fill="#9b7cff" opacity=".55"/><rect x="1231" y="604" width="7" height="7" fill="#9b7cff" opacity=".55"/><rect x="1249" y="635" width="7" height="7" fill="#9b7cff" opacity=".55"/><rect x="1231" y="666" width="7" height="7" fill="#9b7cff" opacity=".55"/><rect x="1249" y="697" width="7" height="7" fill="#9b7cff" opacity=".55"/><rect x="1231" y="728" width="7" height="7" fill="#9b7cff" opacity=".55"/><rect x="1306" y="734" width="72" height="86" fill="#163038" opacity="0.17"/>
      <rect x="1314" y="749" width="7" height="7" fill="#22d9ee" opacity=".55"/><rect x="1332" y="780" width="7" height="7" fill="#22d9ee" opacity=".55"/><rect x="1362" y="681" width="48" height="139" fill="#163038" opacity="0.17"/>
      <rect x="1370" y="696" width="7" height="7" fill="#9b7cff" opacity=".55"/><rect x="1388" y="727" width="7" height="7" fill="#9b7cff" opacity=".55"/><rect x="1370" y="758" width="7" height="7" fill="#9b7cff" opacity=".55"/><rect x="1445" y="628" width="60" height="192" fill="#163038" opacity="0.17"/>
      <rect x="1453" y="643" width="7" height="7" fill="#22d9ee" opacity=".55"/><rect x="1471" y="674" width="7" height="7" fill="#22d9ee" opacity=".55"/><rect x="1453" y="705" width="7" height="7" fill="#22d9ee" opacity=".55"/><rect x="1471" y="736" width="7" height="7" fill="#22d9ee" opacity=".55"/><rect x="1453" y="767" width="7" height="7" fill="#22d9ee" opacity=".55"/><rect x="1528" y="575" width="72" height="245" fill="#22d9ee" opacity="0.34"/>
      <rect x="1536" y="590" width="7" height="7" fill="#9b7cff" opacity=".55"/><rect x="1554" y="621" width="7" height="7" fill="#9b7cff" opacity=".55"/><rect x="1536" y="652" width="7" height="7" fill="#9b7cff" opacity=".55"/><rect x="1554" y="683" width="7" height="7" fill="#9b7cff" opacity=".55"/><rect x="1536" y="714" width="7" height="7" fill="#9b7cff" opacity=".55"/><rect x="1554" y="745" width="7" height="7" fill="#9b7cff" opacity=".55"/><rect x="1584" y="522" width="48" height="298" fill="#163038" opacity="0.17"/>
      <rect x="1592" y="537" width="7" height="7" fill="#22d9ee" opacity=".55"/><rect x="1610" y="568" width="7" height="7" fill="#22d9ee" opacity=".55"/><rect x="1592" y="599" width="7" height="7" fill="#22d9ee" opacity=".55"/><rect x="1610" y="630" width="7" height="7" fill="#22d9ee" opacity=".55"/><rect x="1592" y="661" width="7" height="7" fill="#22d9ee" opacity=".55"/><rect x="1610" y="692" width="7" height="7" fill="#22d9ee" opacity=".55"/><rect x="1592" y="723" width="7" height="7" fill="#22d9ee" opacity=".55"/><g opacity=".55"><rect x="120" y="455" width="70" height="44" rx="2" fill="#070a0b" stroke="#9b7cff" stroke-width="3"/>
      <rect x="131" y="466" width="48" height="5" fill="#22d9ee"/><rect x="131" y="478" width="20" height="5" fill="#506165"/></g><g opacity=".55"><rect x="335" y="322" width="70" height="44" rx="2" fill="#070a0b" stroke="#22d9ee" stroke-width="3"/>
      <rect x="346" y="333" width="48" height="5" fill="#9b7cff"/><rect x="346" y="345" width="27" height="5" fill="#506165"/></g><g opacity=".55"><rect x="490" y="419" width="70" height="44" rx="2" fill="#070a0b" stroke="#9b7cff" stroke-width="3"/>
      <rect x="501" y="430" width="48" height="5" fill="#22d9ee"/><rect x="501" y="442" width="34" height="5" fill="#506165"/></g><g opacity=".55"><rect x="705" y="286" width="70" height="44" rx="2" fill="#070a0b" stroke="#22d9ee" stroke-width="3"/>
      <rect x="716" y="297" width="48" height="5" fill="#9b7cff"/><rect x="716" y="309" width="41" height="5" fill="#506165"/></g><g opacity=".55"><rect x="860" y="383" width="70" height="44" rx="2" fill="#070a0b" stroke="#9b7cff" stroke-width="3"/>
      <rect x="871" y="394" width="48" height="5" fill="#22d9ee"/><rect x="871" y="406" width="20" height="5" fill="#506165"/></g><g opacity=".55"><rect x="1075" y="250" width="70" height="44" rx="2" fill="#070a0b" stroke="#22d9ee" stroke-width="3"/>
      <rect x="1086" y="261" width="48" height="5" fill="#9b7cff"/><rect x="1086" y="273" width="27" height="5" fill="#506165"/></g><g opacity=".55"><rect x="1230" y="347" width="70" height="44" rx="2" fill="#070a0b" stroke="#9b7cff" stroke-width="3"/>
      <rect x="1241" y="358" width="48" height="5" fill="#22d9ee"/><rect x="1241" y="370" width="34" height="5" fill="#506165"/></g><g opacity=".55"><rect x="1445" y="444" width="70" height="44" rx="2" fill="#070a0b" stroke="#22d9ee" stroke-width="3"/>
      <rect x="1456" y="455" width="48" height="5" fill="#9b7cff"/><rect x="1456" y="467" width="41" height="5" fill="#506165"/></g><g transform="translate(800 470)"><rect x="-165" y="-120" width="330" height="270" fill="#07151b" stroke="#22d9ee" stroke-width="5"/><rect x="-130" y="-80" width="260" height="35" fill="#22d9ee" opacity=".35"/><circle cx="-95" cy="45" r="11" fill="#9b7cff"/><circle cx="-55" cy="45" r="11" fill="#22d9ee"/><path d="M-220 190 Q-120 120 0 190 T220 190" fill="none" stroke="#22d9ee" stroke-width="8" opacity=".45"/></g>
  <rect x="32" y="32" width="8" height="836" fill="#22d9ee" opacity=".55"/>
  <rect x="48" y="32" width="2" height="836" fill="#9b7cff" opacity=".4"/>
  <g opacity=".78"><rect x="78" y="62" width="496" height="52" fill="#050708" stroke="#22d9ee" stroke-width="2"/>
  <text x="96" y="94" font-family="monospace" font-size="24" font-weight="700" fill="#22d9ee">SERVIDOR SUBMERSO</text></g>
  <text x="96" y="132" font-family="monospace" font-size="12" fill="#9b7cff" opacity=".8">PING: 20000 ANOS</text>
  <text x="1290" y="850" font-family="monospace" font-size="11" fill="#22d9ee" opacity=".55">AVESSO.SYS // WALLPAPER 06</text>
  <path d="M0 760 H1600" stroke="#22d9ee" stroke-width="2" opacity=".18"/>
</svg>