<svg xmlns="http://www.w3.org/2000/svg" width="1600" height="900" viewBox="0 0 1600 900" shape-rendering="crispEdges">
  <rect width="1600" height="900" fill="#100912"/>
  <rect width="1600" height="620" fill="#2b102e" opacity=".48"/>
  <rect x="104" y="134" width="5" height="5" fill="#ff5ce7" opacity="0.25"/><rect x="301" y="217" width="2" height="2" fill="#d8ff3e" opacity="0.37"/><rect x="498" y="300" width="2" height="2" fill="#d8ff3e" opacity="0.49"/><rect x="695" y="383" width="2" height="2" fill="#ff5ce7" opacity="0.61"/><rect x="892" y="466" width="2" height="2" fill="#d8ff3e" opacity="0.73"/><rect x="1089" y="29" width="3" height="3" fill="#d8ff3e" opacity="0.25"/><rect x="1286" y="112" width="2" height="2" fill="#ff5ce7" opacity="0.37"/><rect x="1483" y="195" width="2" height="2" fill="#d8ff3e" opacity="0.49"/><rect x="100" y="278" width="2" height="2" fill="#d8ff3e" opacity="0.61"/><rect x="297" y="361" width="2" height="2" fill="#ff5ce7" opacity="0.73"/><rect x="494" y="444" width="3" height="3" fill="#d8ff3e" opacity="0.25"/><rect x="691" y="527" width="5" height="5" fill="#d8ff3e" opacity="0.37"/><rect x="888" y="90" width="2" height="2" fill="#ff5ce7" opacity="0.49"/><rect x="1085" y="173" width="2" height="2" fill="#d8ff3e" opacity="0.61"/><rect x="1282" y="256" width="2" height="2" fill="#d8ff3e" opacity="0.73"/><rect x="1479" y="339" width="3" height="3" fill="#ff5ce7" opacity="0.25"/><rect x="96" y="422" width="2" height="2" fill="#d8ff3e" opacity="0.37"/><rect x="293" y="505" width="2" height="2" fill="#d8ff3e" opacity="0.49"/><rect x="490" y="68" width="2" height="2" fill="#ff5ce7" opacity="0.61"/><rect x="687" y="151" width="2" height="2" fill="#d8ff3e" opacity="0.73"/><rect x="884" y="234" width="3" height="3" fill="#d8ff3e" opacity="0.25"/><rect x="1081" y="317" width="2" height="2" fill="#ff5ce7" opacity="0.37"/><rect x="1278" y="400" width="5" height="5" fill="#d8ff3e" opacity="0.49"/><rect x="1475" y="483" width="2" height="2" fill="#d8ff3e" opacity="0.61"/><rect x="92" y="46" width="2" height="2" fill="#ff5ce7" opacity="0.73"/><rect x="289" y="129" width="3" height="3" fill="#d8ff3e" opacity="0.25"/><rect x="486" y="212" width="2" height="2" fill="#d8ff3e" opacity="0.37"/><rect x="683" y="295" width="2" height="2" fill="#ff5ce7" opacity="0.49"/><rect x="880" y="378" width="2" height="2" fill="#d8ff3e" opacity="0.61"/><rect x="1077" y="461" width="2" height="2" fill="#d8ff3e" opacity="0.73"/><rect x="1274" y="24" width="3" height="3" fill="#ff5ce7" opacity="0.25"/><rect x="1471" y="107" width="2" height="2" fill="#d8ff3e" opacity="0.37"/><rect x="88" y="190" width="2" height="2" fill="#d8ff3e" opacity="0.49"/><rect x="285" y="273" width="5" height="5" fill="#ff5ce7" opacity="0.61"/><rect x="482" y="356" width="2" height="2" fill="#d8ff3e" opacity="0.73"/><rect x="679" y="439" width="3" height="3" fill="#d8ff3e" opacity="0.25"/><rect x="876" y="522" width="2" height="2" fill="#ff5ce7" opacity="0.37"/><rect x="1073" y="85" width="2" height="2" fill="#d8ff3e" opacity="0.49"/><rect x="1270" y="168" width="2" height="2" fill="#d8ff3e" opacity="0.61"/><rect x="1467" y="251" width="2" height="2" fill="#ff5ce7" opacity="0.73"/><rect x="84" y="334" width="3" height="3" fill="#d8ff3e" opacity="0.25"/><rect x="281" y="417" width="2" height="2" fill="#d8ff3e" opacity="0.37"/><rect x="478" y="500" width="2" height="2" fill="#ff5ce7" opacity="0.49"/><rect x="675" y="63" width="2" height="2" fill="#d8ff3e" opacity="0.61"/><rect x="872" y="146" width="5" height="5" fill="#d8ff3e" opacity="0.73"/><rect x="1069" y="229" width="3" height="3" fill="#ff5ce7" opacity="0.25"/><rect x="1266" y="312" width="2" height="2" fill="#d8ff3e" opacity="0.37"/><rect x="1463" y="395" width="2" height="2" fill="#d8ff3e" opacity="0.49"/><rect x="80" y="478" width="2" height="2" fill="#ff5ce7" opacity="0.61"/><rect x="277" y="41" width="2" height="2" fill="#d8ff3e" opacity="0.73"/><rect x="474" y="124" width="3" height="3" fill="#d8ff3e" opacity="0.25"/><rect x="671" y="207" width="2" height="2" fill="#ff5ce7" opacity="0.37"/><rect x="868" y="290" width="2" height="2" fill="#d8ff3e" opacity="0.49"/><rect x="1065" y="373" width="2" height="2" fill="#d8ff3e" opacity="0.61"/><rect x="1262" y="456" width="2" height="2" fill="#ff5ce7" opacity="0.73"/><rect x="1459" y="19" width="5" height="5" fill="#d8ff3e" opacity="0.25"/><rect x="76" y="102" width="2" height="2" fill="#d8ff3e" opacity="0.37"/><rect x="273" y="185" width="2" height="2" fill="#ff5ce7" opacity="0.49"/><rect x="470" y="268" width="2" height="2" fill="#d8ff3e" opacity="0.61"/><rect x="667" y="351" width="2" height="2" fill="#d8ff3e" opacity="0.73"/><rect x="864" y="434" width="3" height="3" fill="#ff5ce7" opacity="0.25"/><rect x="1061" y="517" width="2" height="2" fill="#d8ff3e" opacity="0.37"/><rect x="1258" y="80" width="2" height="2" fill="#d8ff3e" opacity="0.49"/><rect x="1455" y="163" width="2" height="2" fill="#ff5ce7" opacity="0.61"/><rect x="72" y="246" width="2" height="2" fill="#d8ff3e" opacity="0.73"/><rect x="269" y="329" width="3" height="3" fill="#d8ff3e" opacity="0.25"/><rect x="466" y="412" width="5" height="5" fill="#ff5ce7" opacity="0.37"/><rect x="663" y="495" width="2" height="2" fill="#d8ff3e" opacity="0.49"/><rect x="860" y="58" width="2" height="2" fill="#d8ff3e" opacity="0.61"/><rect x="1057" y="141" width="2" height="2" fill="#ff5ce7" opacity="0.73"/><rect x="1254" y="224" width="3" height="3" fill="#d8ff3e" opacity="0.25"/><rect x="1451" y="307" width="2" height="2" fill="#d8ff3e" opacity="0.37"/><rect x="68" y="390" width="2" height="2" fill="#ff5ce7" opacity="0.49"/><rect x="265" y="473" width="2" height="2" fill="#d8ff3e" opacity="0.61"/><rect x="462" y="36" width="2" height="2" fill="#d8ff3e" opacity="0.73"/><rect x="30" y="688" width="48" height="132" fill="#ff5ce7" opacity="0.34"/>
      <rect x="38" y="703" width="7" height="7" fill="#d8ff3e" opacity=".55"/><rect x="56" y="734" width="7" height="7" fill="#d8ff3e" opacity=".55"/><rect x="38" y="765" width="7" height="7" fill="#d8ff3e" opacity=".55"/><rect x="113" y="635" width="60" height="185" fill="#163038" opacity="0.17"/>
      <rect x="121" y="650" width="7" height="7" fill="#ff5ce7" opacity=".55"/><rect x="139" y="681" width="7" height="7" fill="#ff5ce7" opacity=".55"/><rect x="121" y="712" width="7" height="7" fill="#ff5ce7" opacity=".55"/><rect x="139" y="743" width="7" height="7" fill="#ff5ce7" opacity=".55"/><rect x="196" y="582" width="72" height="238" fill="#163038" opacity="0.17"/>
      <rect x="204" y="597" width="7" height="7" fill="#d8ff3e" opacity=".55"/><rect x="222" y="628" width="7" height="7" fill="#d8ff3e" opacity=".55"/><rect x="204" y="659" width="7" height="7" fill="#d8ff3e" opacity=".55"/><rect x="222" y="690" width="7" height="7" fill="#d8ff3e" opacity=".55"/><rect x="204" y="721" width="7" height="7" fill="#d8ff3e" opacity=".55"/><rect x="222" y="752" width="7" height="7" fill="#d8ff3e" opacity=".55"/><rect x="252" y="529" width="48" height="291" fill="#163038" opacity="0.17"/>
      <rect x="260" y="544" width="7" height="7" fill="#ff5ce7" opacity=".55"/><rect x="278" y="575" width="7" height="7" fill="#ff5ce7" opacity=".55"/><rect x="260" y="606" width="7" height="7" fill="#ff5ce7" opacity=".55"/><rect x="278" y="637" width="7" height="7" fill="#ff5ce7" opacity=".55"/><rect x="260" y="668" width="7" height="7" fill="#ff5ce7" opacity=".55"/><rect x="278" y="699" width="7" height="7" fill="#ff5ce7" opacity=".55"/><rect x="260" y="730" width="7" height="7" fill="#ff5ce7" opacity=".55"/><rect x="335" y="736" width="60" height="84" fill="#ff5ce7" opacity="0.34"/>
      <rect x="343" y="751" width="7" height="7" fill="#d8ff3e" opacity=".55"/><rect x="361" y="782" width="7" height="7" fill="#d8ff3e" opacity=".55"/><rect x="418" y="683" width="72" height="137" fill="#d8ff3e" opacity="0.17"/>
      <rect x="426" y="698" width="7" height="7" fill="#ff5ce7" opacity=".55"/><rect x="444" y="729" width="7" height="7" fill="#ff5ce7" opacity=".55"/><rect x="426" y="760" width="7" height="7" fill="#ff5ce7" opacity=".55"/><rect x="474" y="630" width="48" height="190" fill="#163038" opacity="0.17"/>
      <rect x="482" y="645" width="7" height="7" fill="#d8ff3e" opacity=".55"/><rect x="500" y="676" width="7" height="7" fill="#d8ff3e" opacity=".55"/><rect x="482" y="707" width="7" height="7" fill="#d8ff3e" opacity=".55"/><rect x="500" y="738" width="7" height="7" fill="#d8ff3e" opacity=".55"/><rect x="482" y="769" width="7" height="7" fill="#d8ff3e" opacity=".55"/><rect x="557" y="577" width="60" height="243" fill="#163038" opacity="0.17"/>
      <rect x="565" y="592" width="7" height="7" fill="#ff5ce7" opacity=".55"/><rect x="583" y="623" width="7" height="7" fill="#ff5ce7" opacity=".55"/><rect x="565" y="654" width="7" height="7" fill="#ff5ce7" opacity=".55"/><rect x="583" y="685" width="7" height="7" fill="#ff5ce7" opacity=".55"/><rect x="565" y="716" width="7" height="7" fill="#ff5ce7" opacity=".55"/><rect x="583" y="747" width="7" height="7" fill="#ff5ce7" opacity=".55"/><rect x="640" y="524" width="72" height="296" fill="#ff5ce7" opacity="0.34"/>
      <rect x="648" y="539" width="7" height="7" fill="#d8ff3e" opacity=".55"/><rect x="666" y="570" width="7" height="7" fill="#d8ff3e" opacity=".55"/><rect x="648" y="601" width="7" height="7" fill="#d8ff3e" opacity=".55"/><rect x="666" y="632" width="7" height="7" fill="#d8ff3e" opacity=".55"/><rect x="648" y="663" width="7" height="7" fill="#d8ff3e" opacity=".55"/><rect x="666" y="694" width="7" height="7" fill="#d8ff3e" opacity=".55"/><rect x="648" y="725" width="7" height="7" fill="#d8ff3e" opacity=".55"/><rect x="696" y="731" width="48" height="89" fill="#163038" opacity="0.17"/>
      <rect x="704" y="746" width="7" height="7" fill="#ff5ce7" opacity=".55"/><rect x="722" y="777" width="7" height="7" fill="#ff5ce7" opacity=".55"/><rect x="779" y="678" width="60" height="142" fill="#d8ff3e" opacity="0.17"/>
      <rect x="787" y="693" width="7" height="7" fill="#d8ff3e" opacity=".55"/><rect x="805" y="724" width="7" height="7" fill="#d8ff3e" opacity=".55"/><rect x="787" y="755" width="7" height="7" fill="#d8ff3e" opacity=".55"/><rect x="862" y="625" width="72" height="195" fill="#163038" opacity="0.17"/>
      <rect x="870" y="640" width="7" height="7" fill="#ff5ce7" opacity=".55"/><rect x="888" y="671" width="7" height="7" fill="#ff5ce7" opacity=".55"/><rect x="870" y="702" width="7" height="7" fill="#ff5ce7" opacity=".55"/><rect x="888" y="733" width="7" height="7" fill="#ff5ce7" opacity=".55"/><rect x="870" y="764" width="7" height="7" fill="#ff5ce7" opacity=".55"/><rect x="918" y="572" width="48" height="248" fill="#ff5ce7" opacity="0.34"/>
      <rect x="926" y="587" width="7" height="7" fill="#d8ff3e" opacity=".55"/><rect x="944" y="618" width="7" height="7" fill="#d8ff3e" opacity=".55"/><rect x="926" y="649" width="7" height="7" fill="#d8ff3e" opacity=".55"/><rect x="944" y="680" width="7" height="7" fill="#d8ff3e" opacity=".55"/><rect x="926" y="711" width="7" height="7" fill="#d8ff3e" opacity=".55"/><rect x="944" y="742" width="7" height="7" fill="#d8ff3e" opacity=".55"/><rect x="1001" y="519" width="60" height="301" fill="#163038" opacity="0.17"/>
      <rect x="1009" y="534" width="7" height="7" fill="#ff5ce7" opacity=".55"/><rect x="1027" y="565" width="7" height="7" fill="#ff5ce7" opacity=".55"/><rect x="1009" y="596" width="7" height="7" fill="#ff5ce7" opacity=".55"/><rect x="1027" y="627" width="7" height="7" fill="#ff5ce7" opacity=".55"/><rect x="1009" y="658" width="7" height="7" fill="#ff5ce7" opacity=".55"/><rect x="1027" y="689" width="7" height="7" fill="#ff5ce7" opacity=".55"/><rect x="1009" y="720" width="7" height="7" fill="#ff5ce7" opacity=".55"/><rect x="1084" y="726" width="72" height="94" fill="#163038" opacity="0.17"/>
      <rect x="1092" y="741" width="7" height="7" fill="#d8ff3e" opacity=".55"/><rect x="1110" y="772" width="7" height="7" fill="#d8ff3e" opacity=".55"/><rect x="1140" y="673" width="48" height="147" fill="#d8ff3e" opacity="0.17"/>
      <rect x="1148" y="688" width="7" height="7" fill="#ff5ce7" opacity=".55"/><rect x="1166" y="719" width="7" height="7" fill="#ff5ce7" opacity=".55"/><rect x="1148" y="750" width="7" height="7" fill="#ff5ce7" opacity=".55"/><rect x="1223" y="620" width="60" height="200" fill="#ff5ce7" opacity="0.34"/>
      <rect x="1231" y="635" width="7" height="7" fill="#d8ff3e" opacity=".55"/><rect x="1249" y="666" width="7" height="7" fill="#d8ff3e" opacity=".55"/><rect x="1231" y="697" width="7" height="7" fill="#d8ff3e" opacity=".55"/><rect x="1249" y="728" width="7" height="7" fill="#d8ff3e" opacity=".55"/><rect x="1231" y="759" width="7" height="7" fill="#d8ff3e" opacity=".55"/><rect x="1306" y="567" width="72" height="253" fill="#163038" opacity="0.17"/>
      <rect x="1314" y="582" width="7" height="7" fill="#ff5ce7" opacity=".55"/><rect x="1332" y="613" width="7" height="7" fill="#ff5ce7" opacity=".55"/><rect x="1314" y="644" width="7" height="7" fill="#ff5ce7" opacity=".55"/><rect x="1332" y="675" width="7" height="7" fill="#ff5ce7" opacity=".55"/><rect x="1314" y="706" width="7" height="7" fill="#ff5ce7" opacity=".55"/><rect x="1332" y="737" width="7" height="7" fill="#ff5ce7" opacity=".55"/><rect x="1362" y="514" width="48" height="306" fill="#163038" opacity="0.17"/>
      <rect x="1370" y="529" width="7" height="7" fill="#d8ff3e" opacity=".55"/><rect x="1388" y="560" width="7" height="7" fill="#d8ff3e" opacity=".55"/><rect x="1370" y="591" width="7" height="7" fill="#d8ff3e" opacity=".55"/><rect x="1388" y="622" width="7" height="7" fill="#d8ff3e" opacity=".55"/><rect x="1370" y="653" width="7" height="7" fill="#d8ff3e" opacity=".55"/><rect x="1388" y="684" width="7" height="7" fill="#d8ff3e" opacity=".55"/><rect x="1370" y="715" width="7" height="7" fill="#d8ff3e" opacity=".55"/><rect x="1445" y="721" width="60" height="99" fill="#163038" opacity="0.17"/>
      <rect x="1453" y="736" width="7" height="7" fill="#ff5ce7" opacity=".55"/><rect x="1471" y="767" width="7" height="7" fill="#ff5ce7" opacity=".55"/><rect x="1528" y="668" width="72" height="152" fill="#ff5ce7" opacity="0.34"/>
      <rect x="1536" y="683" width="7" height="7" fill="#d8ff3e" opacity=".55"/><rect x="1554" y="714" width="7" height="7" fill="#d8ff3e" opacity=".55"/><rect x="1536" y="745" width="7" height="7" fill="#d8ff3e" opacity=".55"/><rect x="1554" y="776" width="7" height="7" fill="#d8ff3e" opacity=".55"/><rect x="1584" y="615" width="48" height="205" fill="#163038" opacity="0.17"/>
      <rect x="1592" y="630" width="7" height="7" fill="#ff5ce7" opacity=".55"/><rect x="1610" y="661" width="7" height="7" fill="#ff5ce7" opacity=".55"/><rect x="1592" y="692" width="7" height="7" fill="#ff5ce7" opacity=".55"/><rect x="1610" y="723" width="7" height="7" fill="#ff5ce7" opacity=".55"/><rect x="1592" y="754" width="7" height="7" fill="#ff5ce7" opacity=".55"/><g opacity=".55"><rect x="120" y="326" width="70" height="44" rx="2" fill="#070a0b" stroke="#d8ff3e" stroke-width="3"/>
      <rect x="131" y="337" width="48" height="5" fill="#ff5ce7"/><rect x="131" y="349" width="20" height="5" fill="#506165"/></g><g opacity=".55"><rect x="335" y="423" width="70" height="44" rx="2" fill="#070a0b" stroke="#ff5ce7" stroke-width="3"/>
      <rect x="346" y="434" width="48" height="5" fill="#d8ff3e"/><rect x="346" y="446" width="27" height="5" fill="#506165"/></g><g opacity=".55"><rect x="490" y="290" width="70" height="44" rx="2" fill="#070a0b" stroke="#d8ff3e" stroke-width="3"/>
      <rect x="501" y="301" width="48" height="5" fill="#ff5ce7"/><rect x="501" y="313" width="34" height="5" fill="#506165"/></g><g opacity=".55"><rect x="705" y="387" width="70" height="44" rx="2" fill="#070a0b" stroke="#ff5ce7" stroke-width="3"/>
      <rect x="716" y="398" width="48" height="5" fill="#d8ff3e"/><rect x="716" y="410" width="41" height="5" fill="#506165"/></g><g opacity=".55"><rect x="860" y="254" width="70" height="44" rx="2" fill="#070a0b" stroke="#d8ff3e" stroke-width="3"/>
      <rect x="871" y="265" width="48" height="5" fill="#ff5ce7"/><rect x="871" y="277" width="20" height="5" fill="#506165"/></g><g opacity=".55"><rect x="1075" y="351" width="70" height="44" rx="2" fill="#070a0b" stroke="#ff5ce7" stroke-width="3"/>
      <rect x="1086" y="362" width="48" height="5" fill="#d8ff3e"/><rect x="1086" y="374" width="27" height="5" fill="#506165"/></g><g opacity=".55"><rect x="1230" y="448" width="70" height="44" rx="2" fill="#070a0b" stroke="#d8ff3e" stroke-width="3"/>
      <rect x="1241" y="459" width="48" height="5" fill="#ff5ce7"/><rect x="1241" y="471" width="34" height="5" fill="#506165"/></g><g opacity=".55"><rect x="1445" y="315" width="70" height="44" rx="2" fill="#070a0b" stroke="#ff5ce7" stroke-width="3"/>
      <rect x="1456" y="326" width="48" height="5" fill="#d8ff3e"/><rect x="1456" y="338" width="41" height="5" fill="#506165"/></g><g transform="translate(800 445)"><rect x="-120" y="-90" width="240" height="170" fill="#06090a" stroke="#ff5ce7" stroke-width="5" opacity=".75"/><rect x="-86" y="-55" width="172" height="72" fill="#2b102e"/><rect x="-70" y="-35" width="140" height="9" fill="#ff5ce7" opacity=".75"/><rect x="-48" y="35" width="96" height="12" fill="#d8ff3e" opacity=".65"/></g>
  <rect x="32" y="32" width="8" height="836" fill="#ff5ce7" opacity=".55"/>
  <rect x="48" y="32" width="2" height="836" fill="#d8ff3e" opacity=".4"/>
  <g opacity=".78"><rect x="78" y="62" width="432" height="52" fill="#050708" stroke="#ff5ce7" stroke-width="2"/>
  <text x="96" y="94" font-family="monospace" font-size="24" font-weight="700" fill="#ff5ce7">TORRE KPI</text></g>
  <text x="96" y="132" font-family="monospace" font-size="12" fill="#d8ff3e" opacity=".8">+999% DE NADA</text>
  <text x="1290" y="850" font-family="monospace" font-size="11" fill="#ff5ce7" opacity=".55">AVESSO.SYS // WALLPAPER 03</text>
  <path d="M0 760 H1600" stroke="#ff5ce7" stroke-width="2" opacity=".18"/>
</svg>