<svg xmlns="http://www.w3.org/2000/svg" width="512" height="512" viewBox="0 0 64 64" shape-rendering="crispEdges">
 <rect x="0" y="0" width="64" height="64" fill="#071e24"/><rect x="3" y="3" width="58" height="58" fill="#06090b"/><rect x="5" y="5" width="54" height="54" fill="#10343d"/>
 <rect x="18" y="8" width="28" height="5" fill="#2a3c45"/><rect x="13" y="12" width="38" height="8" fill="#15232b"/><rect x="11" y="18" width="42" height="28" fill="#ae674f"/><rect x="13" y="18" width="38" height="26" fill="#d69a78"/>
 <rect x="12" y="18" width="7" height="12" fill="#15232b"/><rect x="45" y="18" width="7" height="12" fill="#15232b"/>
 <rect x="19" y="28" width="8" height="4" fill="#11161a"/><rect x="37" y="28" width="8" height="4" fill="#11161a"/><rect x="21" y="28" width="4" height="2" fill="#f3f4ec"/><rect x="39" y="28" width="4" height="2" fill="#f3f4ec"/>
 <rect x="30" y="32" width="4" height="7" fill="#ae674f"/><rect x="25" y="40" width="14" height="2" fill="#743d37"/><rect x="27" y="42" width="10" height="2" fill="#b55c53"/>
 <rect x="13" y="46" width="38" height="11" fill="#202832"/><rect x="17" y="45" width="30" height="10" fill="#e9e1d3"/><rect x="27" y="45" width="10" height="5" fill="#d8ff3e"/>
 <rect x="9" y="49" width="8" height="8" fill="#d69a78"/><rect x="47" y="49" width="8" height="8" fill="#d69a78"/>
 <rect x="6" y="6" width="9" height="2" fill="#d8ff3e"/><rect x="50" y="56" width="8" height="2" fill="#d8ff3e"/>
 <rect x="10" y="11" width="18" height="4" fill="#3b5a42"/><rect x="12" y="8" width="15" height="4" fill="#87a83f"/><rect x="44" y="22" width="3" height="7" fill="#22d9ee"/></svg>