<svg xmlns="http://www.w3.org/2000/svg" width="256" height="256" viewBox="0 0 256 256" shape-rendering="crispEdges">
  <rect x="0" y="0" width="256" height="256" fill="#181927"/><rect x="16" y="16" width="224" height="224" fill="#081014"/><rect x="24" y="24" width="208" height="208" fill="#24243a"/>
  <rect x="72" y="192" width="112" height="40" fill="#e9edf2"/><rect x="56" y="216" width="144" height="32" fill="#2a313b"/><rect x="104" y="168" width="48" height="32" fill="#d6a184"/>
  <rect x="64" y="56" width="128" height="120" fill="#efc3a3"/><rect x="56" y="80" width="16" height="64" fill="#d6a184"/><rect x="184" y="80" width="16" height="64" fill="#d6a184"/>
  <rect x="72" y="144" width="112" height="24" fill="#d6a184"/><rect x="80" y="160" width="96" height="16" fill="#bd826b"/>
  <rect x="80" y="88" width="32" height="24" fill="#f5f2e7"/><rect x="144" y="88" width="32" height="24" fill="#f5f2e7"/>
  <rect x="88" y="96" width="16" height="16" fill="#11151b"/><rect x="152" y="96" width="16" height="16" fill="#11151b"/><rect x="96" y="96" width="8" height="8" fill="#fff"/><rect x="160" y="96" width="8" height="8" fill="#fff"/>
  <rect x="80" y="72" width="32" height="8" fill="#e7dfd0"/><rect x="144" y="72" width="32" height="8" fill="#e7dfd0"/><rect x="120" y="104" width="16" height="24" fill="#d6a184"/>
  <rect x="104" y="136" width="48" height="8" fill="#7f4140"/><rect x="112" y="144" width="32" height="8" fill="#d98683"/>
  <rect x="64" y="40" width="128" height="24" fill="#e7dfd0"/><rect x="56" y="56" width="32" height="40" fill="#e7dfd0"/><rect x="168" y="48" width="32" height="48" fill="#e7dfd0"/><rect x="80" y="32" width="88" height="16" fill="#b8b0a8"/>
  <rect x="48" y="64" width="16" height="64" fill="#b8b0a8"/><rect x="192" y="72" width="16" height="56" fill="#b8b0a8"/>
  <rect x="80" y="192" width="32" height="16" fill="#9b7cff"/><rect x="144" y="192" width="32" height="16" fill="#9b7cff"/>
  <rect x="32" y="32" width="24" height="16" fill="#9b7cff"/><rect x="200" y="208" width="24" height="16" fill="#9b7cff"/><rect x="72" y="80" width="48" height="40" fill="#171b20"/><rect x="136" y="80" width="48" height="40" fill="#171b20"/><rect x="80" y="88" width="32" height="24" fill="#d7eef1"/><rect x="144" y="88" width="32" height="24" fill="#d7eef1"/><rect x="120" y="96" width="16" height="8" fill="#b8b0a8"/></svg>