<svg xmlns="http://www.w3.org/2000/svg" width="256" height="256" viewBox="0 0 256 256" shape-rendering="crispEdges">
  <rect x="0" y="0" width="256" height="256" fill="#0f262c"/><rect x="16" y="16" width="224" height="224" fill="#081014"/><rect x="24" y="24" width="208" height="208" fill="#122f36"/>
  <rect x="72" y="192" width="112" height="40" fill="#edf0e5"/><rect x="56" y="216" width="144" height="32" fill="#252c35"/><rect x="104" y="168" width="48" height="32" fill="#bd765c"/>
  <rect x="64" y="56" width="128" height="120" fill="#d89573"/><rect x="56" y="80" width="16" height="64" fill="#bd765c"/><rect x="184" y="80" width="16" height="64" fill="#bd765c"/>
  <rect x="72" y="144" width="112" height="24" fill="#bd765c"/><rect x="80" y="160" width="96" height="16" fill="#a45a48"/>
  <rect x="80" y="88" width="32" height="24" fill="#f5f2e7"/><rect x="144" y="88" width="32" height="24" fill="#f5f2e7"/>
  <rect x="88" y="96" width="16" height="16" fill="#12171b"/><rect x="152" y="96" width="16" height="16" fill="#12171b"/><rect x="96" y="96" width="8" height="8" fill="#fff"/><rect x="160" y="96" width="8" height="8" fill="#fff"/>
  <rect x="80" y="72" width="32" height="8" fill="#171d24"/><rect x="144" y="72" width="32" height="8" fill="#171d24"/><rect x="120" y="104" width="16" height="24" fill="#bd765c"/>
  <rect x="104" y="136" width="48" height="8" fill="#6a302a"/><rect x="112" y="144" width="32" height="8" fill="#d57f72"/>
  <rect x="64" y="40" width="128" height="24" fill="#171d24"/><rect x="56" y="56" width="32" height="40" fill="#171d24"/><rect x="168" y="48" width="32" height="48" fill="#171d24"/><rect x="80" y="32" width="88" height="16" fill="#27313a"/>
  <rect x="48" y="64" width="16" height="64" fill="#27313a"/><rect x="192" y="72" width="16" height="56" fill="#27313a"/>
  <rect x="80" y="192" width="32" height="16" fill="#d8ff3e"/><rect x="144" y="192" width="32" height="16" fill="#d8ff3e"/>
  <rect x="32" y="32" width="24" height="16" fill="#d8ff3e"/><rect x="200" y="208" width="24" height="16" fill="#d8ff3e"/><rect x="64" y="16" width="128" height="32" fill="#d8ff3e"/><rect x="56" y="40" width="144" height="16" fill="#22d9ee"/><rect x="80" y="8" width="80" height="16" fill="#d8ff3e"/><rect x="184" y="32" width="24" height="24" fill="#22d9ee"/></svg>